<?xml version="1.0" encoding="utf-8"?>
<!-- Generator: Adobe Illustrator 19.1.0, SVG Export Plug-In . SVG Version: 6.00 Build 0)  -->
<svg version="1.1" id="Layer_1" xmlns="http://www.w3.org/2000/svg" xmlns:xlink="http://www.w3.org/1999/xlink" x="0px" y="0px"
	 viewBox="0 0 616 19" style="enable-background:new 0 0 616 19;" xml:space="preserve">
<style type="text/css">
	.st0{fill:#FFFFFF;}
	.st1{fill-rule:evenodd;clip-rule:evenodd;fill:#FFFFFF;}
</style>
<g>
	<g>
		<path class="st0" d="M87,3.1c3.9,0,7.4,1.4,10.1,3.8L99,4.8C95.8,2,91.6,0,87,0c-4.6,0-8.8,2-12,4.8l1.9,2.1
			C79.6,4.5,83.1,3.1,87,3.1z"/>
		<path class="st0" d="M87,9.2c2.3,0,4.4,0.9,6.1,2.3l2-2.2c-2.2-1.9-5-3.1-8.1-3.1c-3.1,0-5.9,1.2-8.1,3.1l2,2.2
			C82.5,10,84.7,9.2,87,9.2z"/>
		<path class="st0" d="M91.1,13.7c-1.1-0.9-2.5-1.6-4.1-1.6c-1.6,0-3,0.6-4.1,1.6l4.1,4.6L91.1,13.7z"/>
	</g>
	<path class="st1" d="M613,6c1.9,0,3,1.6,3,3.5s-1.1,3.5-3,3.5V6z"/>
	<path class="st0" d="M609,1c1.1,0,2,0.9,2,2v13c0,1.1-0.9,2-2,2h-39c-1.1,0-2-0.9-2-2V3c0-1.1,0.9-2,2-2H609 M609,0h-39
		c-1.7,0-3,1.3-3,3v13c0,1.7,1.3,3,3,3h39c1.7,0,3-1.3,3-3V3C612,1.3,610.7,0,609,0L609,0z"/>
	<path class="st1" d="M571,2h37c1.1,0,2,0.9,2,2v11c0,1.1-0.9,2-2,2h-37c-1.1,0-2-0.9-2-2V4C569,2.9,569.9,2,571,2z"/>
	<path class="st1" d="M5.5,4c3,0,5.5,2.5,5.5,5.5S8.5,15,5.5,15C2.5,15,0,12.5,0,9.5S2.5,4,5.5,4z"/>
	<path class="st1" d="M19.5,4c3,0,5.5,2.5,5.5,5.5S22.5,15,19.5,15c-3,0-5.5-2.5-5.5-5.5S16.5,4,19.5,4z"/>
	<path class="st1" d="M33.5,4c3,0,5.5,2.5,5.5,5.5S36.5,15,33.5,15c-3,0-5.5-2.5-5.5-5.5S30.5,4,33.5,4z"/>
	<path class="st0" d="M47.5,4c-3,0-5.5,2.5-5.5,5.5s2.5,5.5,5.5,5.5c3,0,5.5-2.5,5.5-5.5S50.5,4,47.5,4L47.5,4z"/>
	<path class="st0" d="M61.5,4c-3,0-5.5,2.5-5.5,5.5s2.5,5.5,5.5,5.5c3,0,5.5-2.5,5.5-5.5S64.5,4,61.5,4L61.5,4z"/>
	<g>
		<path class="st0" d="M502.8,17.6V5.4h-4.4V3.7c0.6,0,1.1,0,1.7-0.1c0.5-0.1,1-0.3,1.5-0.5c0.4-0.2,0.8-0.6,1.1-1
			c0.3-0.4,0.5-0.9,0.6-1.6h1.6v17H502.8z"/>
		<path class="st0" d="M510.7,7.3c0-0.7,0.1-1.3,0.2-2c0.1-0.6,0.3-1.2,0.6-1.8c0.2-0.6,0.6-1.1,1-1.5s0.9-0.8,1.6-1
			c0.6-0.3,1.4-0.4,2.3-0.4s1.6,0.1,2.3,0.4c0.6,0.3,1.2,0.6,1.6,1s0.7,0.9,1,1.5c0.2,0.6,0.4,1.2,0.6,1.8c0.1,0.6,0.2,1.3,0.2,2
			s0,1.3,0,1.9s0,1.3,0,1.9c0,0.7-0.1,1.3-0.2,2c-0.1,0.6-0.3,1.2-0.6,1.8s-0.6,1.1-1,1.5s-0.9,0.8-1.6,1c-0.6,0.2-1.4,0.4-2.3,0.4
			c-0.9,0-1.6-0.1-2.3-0.4c-0.6-0.2-1.2-0.6-1.6-1s-0.7-0.9-1-1.5c-0.2-0.6-0.4-1.2-0.6-1.8c-0.1-0.6-0.2-1.3-0.2-2
			c0-0.7,0-1.3,0-1.9S510.7,7.9,510.7,7.3z M512.9,11.3c0,0.8,0.2,1.5,0.4,2.2c0.2,0.7,0.6,1.3,1,1.8c0.5,0.5,1.2,0.7,2,0.7
			s1.5-0.2,2-0.7c0.5-0.5,0.8-1.1,1-1.8c0.2-0.7,0.3-1.4,0.4-2.2c0-0.8,0.1-1.5,0.1-2.1c0-0.4,0-0.9,0-1.4c0-0.5,0-1-0.1-1.5
			s-0.2-1-0.3-1.5c-0.1-0.5-0.3-0.9-0.6-1.3c-0.3-0.4-0.6-0.7-1-0.9c-0.4-0.2-0.9-0.3-1.5-0.3s-1.1,0.1-1.5,0.3
			c-0.4,0.2-0.7,0.5-1,0.9s-0.5,0.8-0.6,1.3c-0.1,0.5-0.2,1-0.3,1.5s-0.1,1-0.1,1.5s0,1,0,1.4C512.8,9.8,512.8,10.5,512.9,11.3z"/>
		<path class="st0" d="M524,7.3c0-0.7,0.1-1.3,0.2-2c0.1-0.6,0.3-1.2,0.6-1.8c0.2-0.6,0.6-1.1,1-1.5s0.9-0.8,1.6-1
			c0.6-0.3,1.4-0.4,2.3-0.4s1.6,0.1,2.3,0.4c0.6,0.3,1.2,0.6,1.6,1s0.7,0.9,1,1.5c0.2,0.6,0.4,1.2,0.6,1.8c0.1,0.6,0.2,1.3,0.2,2
			s0,1.3,0,1.9s0,1.3,0,1.9c0,0.7-0.1,1.3-0.2,2c-0.1,0.6-0.3,1.2-0.6,1.8s-0.6,1.1-1,1.5s-0.9,0.8-1.6,1c-0.6,0.2-1.4,0.4-2.3,0.4
			c-0.9,0-1.6-0.1-2.3-0.4c-0.6-0.2-1.2-0.6-1.6-1s-0.7-0.9-1-1.5c-0.2-0.6-0.4-1.2-0.6-1.8c-0.1-0.6-0.2-1.3-0.2-2
			c0-0.7,0-1.3,0-1.9S524,7.9,524,7.3z M526.2,11.3c0,0.8,0.2,1.5,0.4,2.2c0.2,0.7,0.6,1.3,1,1.8c0.5,0.5,1.2,0.7,2,0.7
			s1.5-0.2,2-0.7c0.5-0.5,0.8-1.1,1-1.8c0.2-0.7,0.3-1.4,0.4-2.2c0-0.8,0.1-1.5,0.1-2.1c0-0.4,0-0.9,0-1.4c0-0.5,0-1-0.1-1.5
			s-0.2-1-0.3-1.5c-0.1-0.5-0.3-0.9-0.6-1.3c-0.3-0.4-0.6-0.7-1-0.9c-0.4-0.2-0.9-0.3-1.5-0.3s-1.1,0.1-1.5,0.3
			c-0.4,0.2-0.7,0.5-1,0.9s-0.5,0.8-0.6,1.3c-0.1,0.5-0.2,1-0.3,1.5s-0.1,1-0.1,1.5s0,1,0,1.4C526.2,9.8,526.2,10.5,526.2,11.3z"/>
		<path class="st0" d="M538.7,3.6c0.1-0.6,0.3-1.1,0.6-1.5s0.7-0.8,1.2-1.1c0.5-0.3,1.1-0.4,1.8-0.4c0.8,0,1.4,0.1,1.9,0.4
			s0.9,0.6,1.2,1s0.5,0.9,0.6,1.5c0.1,0.6,0.2,1.2,0.2,1.9c0,0.6-0.1,1.2-0.2,1.8c-0.1,0.6-0.4,1.1-0.7,1.5
			c-0.3,0.4-0.7,0.8-1.2,1.1c-0.5,0.3-1.1,0.4-1.8,0.4c-0.7,0-1.3-0.1-1.8-0.4c-0.5-0.2-0.9-0.6-1.2-1c-0.3-0.4-0.5-0.9-0.7-1.5
			c-0.1-0.6-0.2-1.2-0.2-1.8C538.5,4.8,538.6,4.1,538.7,3.6z M540.4,6.5c0,0.4,0.1,0.8,0.3,1.1c0.1,0.3,0.3,0.6,0.6,0.9
			c0.3,0.2,0.6,0.3,1.1,0.3c0.5,0,0.8-0.1,1.1-0.3c0.3-0.2,0.5-0.5,0.6-0.9c0.2-0.3,0.3-0.7,0.3-1.1c0-0.4,0.1-0.8,0.1-1.2
			c0-0.4,0-0.7-0.1-1.1c0-0.4-0.1-0.8-0.3-1.1c-0.1-0.3-0.3-0.6-0.6-0.9c-0.3-0.2-0.6-0.3-1.1-0.3c-0.4,0-0.8,0.1-1.1,0.3
			c-0.3,0.2-0.5,0.5-0.6,0.9c-0.2,0.3-0.3,0.7-0.3,1.1c0,0.4-0.1,0.8-0.1,1.2C540.3,5.7,540.4,6.1,540.4,6.5z M555.8,0.2l-12.9,17.8
			h-2.1l12.9-17.8H555.8z M550.6,11.2c0.1-0.6,0.3-1.1,0.6-1.5c0.3-0.4,0.7-0.8,1.2-1.1s1.1-0.4,1.8-0.4c0.8,0,1.4,0.1,1.9,0.4
			c0.5,0.3,0.9,0.6,1.2,1c0.3,0.4,0.5,0.9,0.6,1.5c0.1,0.6,0.2,1.2,0.2,1.9c0,0.6-0.1,1.2-0.2,1.8c-0.1,0.6-0.4,1.1-0.7,1.5
			c-0.3,0.4-0.7,0.8-1.2,1.1c-0.5,0.3-1.1,0.4-1.8,0.4c-0.7,0-1.3-0.1-1.8-0.4c-0.5-0.2-0.9-0.6-1.2-1c-0.3-0.4-0.5-0.9-0.7-1.5
			c-0.1-0.6-0.2-1.2-0.2-1.8S550.5,11.8,550.6,11.2z M552.3,14.2c0,0.4,0.1,0.8,0.3,1.1c0.1,0.3,0.3,0.6,0.6,0.9
			c0.3,0.2,0.6,0.3,1.1,0.3c0.5,0,0.8-0.1,1.1-0.3c0.3-0.2,0.5-0.5,0.6-0.9c0.2-0.3,0.3-0.7,0.3-1.1s0.1-0.8,0.1-1.2
			c0-0.4,0-0.7-0.1-1.1c0-0.4-0.1-0.8-0.3-1.1c-0.1-0.3-0.3-0.6-0.6-0.9s-0.6-0.3-1.1-0.3c-0.4,0-0.8,0.1-1.1,0.3
			c-0.3,0.2-0.5,0.5-0.6,0.9c-0.2,0.3-0.3,0.7-0.3,1.1c0,0.4-0.1,0.8-0.1,1.2C552.2,13.4,552.2,13.8,552.3,14.2z"/>
	</g>
	<g>
		<path class="st0" d="M267.9,17.9c-0.8,0-1.6-0.1-2.4-0.4c-0.7-0.2-1.4-0.6-1.9-1c-0.5-0.5-0.9-1-1.2-1.7c-0.3-0.7-0.4-1.4-0.4-2.2
			c0-1.1,0.3-1.9,0.8-2.7c0.6-0.7,1.3-1.2,2.2-1.4v0c-0.8-0.3-1.4-0.7-1.8-1.3c-0.4-0.6-0.6-1.3-0.6-2.1c0-1.4,0.5-2.6,1.4-3.4
			s2.2-1.2,3.9-1.2s3,0.4,3.9,1.2s1.4,1.9,1.4,3.4c0,0.8-0.2,1.5-0.6,2.1c-0.4,0.6-1,1-1.8,1.3v0c0.9,0.2,1.7,0.7,2.2,1.4
			c0.6,0.7,0.8,1.6,0.8,2.7c0,0.8-0.1,1.6-0.4,2.2c-0.3,0.7-0.7,1.2-1.2,1.7s-1.2,0.8-1.9,1C269.5,17.8,268.7,17.9,267.9,17.9z
			 M267.9,15.7c0.9,0,1.7-0.3,2.3-0.8c0.6-0.5,0.9-1.3,0.9-2.3c0-0.9-0.3-1.7-0.9-2.2c-0.6-0.5-1.4-0.8-2.3-0.8s-1.7,0.3-2.3,0.8
			c-0.6,0.5-0.9,1.2-0.9,2.2c0,1,0.3,1.8,0.9,2.3C266.2,15.5,267,15.7,267.9,15.7z M267.9,2.6c-0.7,0-1.4,0.2-1.9,0.7
			s-0.8,1.1-0.8,1.9c0,0.8,0.2,1.4,0.7,1.8c0.5,0.4,1.1,0.6,1.9,0.6c0.8,0,1.4-0.2,1.9-0.6c0.5-0.4,0.7-1,0.7-1.8
			c0-0.8-0.3-1.5-0.8-1.9S268.6,2.6,267.9,2.6z"/>
		<path class="st0" d="M276.4,5.4h3.3v3.2h-3.3V5.4z M276.4,14.3h3.3v3.2h-3.3V14.3z"/>
		<path class="st0" d="M288.2,0.4c1.2,0,2.2,0.3,2.9,0.8c0.8,0.6,1.4,1.3,1.8,2.1s0.7,1.8,0.9,2.8s0.2,2,0.2,3s-0.1,2-0.2,3
			s-0.4,2-0.9,2.8s-1,1.6-1.8,2.1c-0.8,0.6-1.7,0.8-2.9,0.8s-2.2-0.3-2.9-0.8c-0.8-0.6-1.4-1.3-1.8-2.1s-0.7-1.8-0.9-2.8
			s-0.2-2-0.2-3s0.1-2,0.2-3s0.4-2,0.9-2.8s1-1.6,1.8-2.1C286,0.7,287,0.4,288.2,0.4z M288.2,15.6c0.6,0,1.1-0.2,1.5-0.5
			c0.4-0.3,0.7-0.8,0.9-1.4c0.2-0.6,0.4-1.3,0.5-2.1c0.1-0.8,0.1-1.6,0.1-2.5s0-1.7-0.1-2.5c-0.1-0.8-0.3-1.5-0.5-2.1
			c-0.2-0.6-0.5-1.1-0.9-1.4c-0.4-0.3-0.9-0.5-1.5-0.5c-0.6,0-1.1,0.2-1.5,0.5c-0.4,0.3-0.7,0.8-0.9,1.4c-0.2,0.6-0.4,1.3-0.5,2.1
			s-0.1,1.6-0.1,2.5s0,1.7,0.1,2.5c0.1,0.8,0.3,1.5,0.5,2.1c0.2,0.6,0.5,1,0.9,1.4C287.1,15.5,287.6,15.6,288.2,15.6z"/>
		<path class="st0" d="M301.7,17.9c-0.8,0-1.6-0.1-2.4-0.4c-0.7-0.2-1.4-0.6-1.9-1c-0.5-0.5-0.9-1-1.2-1.7c-0.3-0.7-0.4-1.4-0.4-2.2
			c0-1.1,0.3-1.9,0.8-2.7c0.6-0.7,1.3-1.2,2.2-1.4v0c-0.8-0.3-1.4-0.7-1.8-1.3c-0.4-0.6-0.6-1.3-0.6-2.1c0-1.4,0.5-2.6,1.4-3.4
			s2.2-1.2,3.9-1.2s3,0.4,3.9,1.2s1.4,1.9,1.4,3.4c0,0.8-0.2,1.5-0.6,2.1c-0.4,0.6-1,1-1.8,1.3v0c0.9,0.2,1.7,0.7,2.2,1.4
			c0.6,0.7,0.8,1.6,0.8,2.7c0,0.8-0.1,1.6-0.4,2.2c-0.3,0.7-0.7,1.2-1.2,1.7s-1.2,0.8-1.9,1C303.3,17.8,302.5,17.9,301.7,17.9z
			 M301.7,15.7c0.9,0,1.7-0.3,2.3-0.8c0.6-0.5,0.9-1.3,0.9-2.3c0-0.9-0.3-1.7-0.9-2.2c-0.6-0.5-1.4-0.8-2.3-0.8s-1.7,0.3-2.3,0.8
			c-0.6,0.5-0.9,1.2-0.9,2.2c0,1,0.3,1.8,0.9,2.3C300,15.5,300.8,15.7,301.7,15.7z M301.7,2.6c-0.7,0-1.4,0.2-1.9,0.7
			S299,4.3,299,5.2c0,0.8,0.2,1.4,0.7,1.8c0.5,0.4,1.1,0.6,1.9,0.6c0.8,0,1.4-0.2,1.9-0.6c0.5-0.4,0.7-1,0.7-1.8
			c0-0.8-0.3-1.5-0.8-1.9S302.4,2.6,301.7,2.6z"/>
		<path class="st0" d="M321.7,0.4h3.2l6.6,17.1h-3.2l-1.6-4.5h-6.8l-1.6,4.5h-3.1L321.7,0.4z M320.7,10.8h5.2l-2.6-7.4h-0.1
			L320.7,10.8z"/>
		<path class="st0" d="M333.2,0.4h4.2l4.7,13.4h0l4.6-13.4h4.2v17.1h-2.9V4.3h0l-4.8,13.2h-2.5l-4.8-13.2h0v13.2h-2.9V0.4z"/>
	</g>
</g>
</svg>
