<?xml version="1.0" encoding="utf-8"?>
<!-- Generator: Adobe Illustrator 19.1.0, SVG Export Plug-In . SVG Version: 6.00 Build 0)  -->
<!DOCTYPE svg PUBLIC "-//W3C//DTD SVG 1.1//EN" "http://www.w3.org/Graphics/SVG/1.1/DTD/svg11.dtd">
<svg version="1.1" id="Layer_1" xmlns="http://www.w3.org/2000/svg" xmlns:xlink="http://www.w3.org/1999/xlink" x="0px" y="0px"
	 width="375px" height="12px" viewBox="-191 510 375 12" style="enable-background:new -191 510 375 12;" xml:space="preserve">
<style type="text/css">
	.st0{fill:#FFFFFF;}
</style>
<g>
	<g>
		<path class="st0" d="M-137.2,512.6c2.1,0,3.9,0.7,5.3,2l1-1.1c-1.7-1.5-3.9-2.5-6.3-2.5s-4.6,1.1-6.3,2.5l1,1.1
			C-141.1,513.4-139.3,512.6-137.2,512.6z"/>
		<path class="st0" d="M-137.2,515.8c1.2,0,2.3,0.5,3.2,1.2l1.1-1.2c-1.2-1-2.6-1.6-4.3-1.6s-3.1,0.6-4.3,1.6l1.1,1.2
			C-139.6,516.3-138.4,515.8-137.2,515.8z"/>
		<path class="st0" d="M-135.1,518.2c-0.6-0.5-1.3-0.8-2.2-0.8s-1.6,0.3-2.2,0.8l2.2,2.4L-135.1,518.2z"/>
		<path class="st0" d="M-180.1,513.1c1.6,0,2.9,1.3,2.9,2.9s-1.3,2.9-2.9,2.9c-1.6,0-2.9-1.3-2.9-2.9S-181.7,513.1-180.1,513.1z"/>
		<path class="st0" d="M-172.7,513.1c1.6,0,2.9,1.3,2.9,2.9s-1.3,2.9-2.9,2.9s-2.9-1.3-2.9-2.9S-174.3,513.1-172.7,513.1z"/>
		<path class="st0" d="M-165.4,513.1c1.6,0,2.9,1.3,2.9,2.9s-1.3,2.9-2.9,2.9s-2.9-1.3-2.9-2.9S-166.9,513.1-165.4,513.1z"/>
		<path class="st0" d="M-158,513.1c-1.6,0-2.9,1.3-2.9,2.9s1.3,2.9,2.9,2.9s2.9-1.3,2.9-2.9S-156.4,513.1-158,513.1L-158,513.1z"/>
		<path class="st0" d="M-150.6,513.1c-1.6,0-2.9,1.3-2.9,2.9s1.3,2.9,2.9,2.9s2.9-1.3,2.9-2.9S-149.1,513.1-150.6,513.1
			L-150.6,513.1z"/>
	</g>
	<g>
		<path class="st0" d="M175.4,514.2c1,0,1.6,0.8,1.6,1.8s-0.6,1.8-1.6,1.8V514.2z"/>
		<path class="st0" d="M173.3,511.5c0.6,0,1.1,0.5,1.1,1.1v6.8c0,0.6-0.5,1.1-1.1,1.1h-20.5c-0.6,0-1.1-0.5-1.1-1.1v-6.8
			c0-0.6,0.5-1.1,1.1-1.1H173.3 M173.3,511h-20.5c-0.9,0-1.6,0.7-1.6,1.6v6.8c0,0.9,0.7,1.6,1.6,1.6h20.5c0.9,0,1.6-0.7,1.6-1.6
			v-6.8C174.9,511.7,174.2,511,173.3,511L173.3,511z"/>
		<path class="st0" d="M153.3,512.1h19.5c0.6,0,1.1,0.5,1.1,1.1v5.8c0,0.6-0.5,1.1-1.1,1.1h-19.5c-0.6,0-1.1-0.5-1.1-1.1v-5.8
			C152.3,512.5,152.7,512.1,153.3,512.1z"/>
		<path class="st0" d="M117.4,520.3v-6.4h-2.3v-0.9c0.3,0,0.6,0,0.9-0.1c0.3-0.1,0.5-0.2,0.8-0.3c0.2-0.1,0.4-0.3,0.6-0.5
			c0.2-0.2,0.3-0.5,0.3-0.8h0.8v8.9L117.4,520.3L117.4,520.3z"/>
		<path class="st0" d="M121.6,514.8c0-0.4,0.1-0.7,0.1-1.1c0.1-0.3,0.2-0.6,0.3-0.9c0.1-0.3,0.3-0.6,0.5-0.8
			c0.2-0.2,0.5-0.4,0.8-0.5c0.3-0.2,0.7-0.2,1.2-0.2s0.8,0.1,1.2,0.2c0.3,0.2,0.6,0.3,0.8,0.5c0.2,0.2,0.4,0.5,0.5,0.8
			c0.1,0.3,0.2,0.6,0.3,0.9c0.1,0.3,0.1,0.7,0.1,1.1s0,0.7,0,1s0,0.7,0,1c0,0.4-0.1,0.7-0.1,1.1c-0.1,0.3-0.2,0.6-0.3,0.9
			c-0.2,0.3-0.3,0.6-0.5,0.8s-0.5,0.4-0.8,0.5c-0.3,0.1-0.7,0.2-1.2,0.2c-0.5,0-0.8-0.1-1.2-0.2c-0.3-0.1-0.6-0.3-0.8-0.5
			c-0.2-0.2-0.4-0.5-0.5-0.8c-0.1-0.3-0.2-0.6-0.3-0.9c-0.1-0.3-0.1-0.7-0.1-1.1s0-0.7,0-1S121.6,515.2,121.6,514.8z M122.7,516.9
			c0,0.4,0.1,0.8,0.2,1.2c0.1,0.4,0.3,0.7,0.5,0.9c0.3,0.3,0.6,0.4,1.1,0.4c0.4,0,0.8-0.1,1.1-0.4c0.3-0.3,0.4-0.6,0.5-0.9
			c0.1-0.4,0.2-0.7,0.2-1.2c0-0.4,0.1-0.8,0.1-1.1c0-0.2,0-0.5,0-0.7c0-0.3,0-0.5-0.1-0.8c-0.1-0.3-0.1-0.5-0.2-0.8
			c-0.1-0.3-0.2-0.5-0.3-0.7s-0.3-0.4-0.5-0.5c-0.2-0.1-0.5-0.2-0.8-0.2c-0.3,0-0.6,0.1-0.8,0.2c-0.2,0.1-0.4,0.3-0.5,0.5
			c-0.2,0.2-0.3,0.4-0.3,0.7c-0.1,0.3-0.1,0.5-0.2,0.8c-0.1,0.3-0.1,0.5-0.1,0.8c0,0.3,0,0.5,0,0.7
			C122.7,516.2,122.7,516.5,122.7,516.9z"/>
		<path class="st0" d="M128.6,514.8c0-0.4,0.1-0.7,0.1-1.1c0.1-0.3,0.2-0.6,0.3-0.9c0.1-0.3,0.3-0.6,0.5-0.8
			c0.2-0.2,0.5-0.4,0.8-0.5c0.3-0.2,0.7-0.2,1.2-0.2s0.8,0.1,1.2,0.2c0.3,0.2,0.6,0.3,0.8,0.5c0.2,0.2,0.4,0.5,0.5,0.8
			c0.1,0.3,0.2,0.6,0.3,0.9c0.1,0.3,0.1,0.7,0.1,1.1s0,0.7,0,1s0,0.7,0,1c0,0.4-0.1,0.7-0.1,1.1c-0.1,0.3-0.2,0.6-0.3,0.9
			c-0.2,0.3-0.3,0.6-0.5,0.8s-0.5,0.4-0.8,0.5c-0.3,0.1-0.7,0.2-1.2,0.2c-0.5,0-0.8-0.1-1.2-0.2c-0.3-0.1-0.6-0.3-0.8-0.5
			s-0.4-0.5-0.5-0.8c-0.1-0.3-0.2-0.6-0.3-0.9c-0.1-0.3-0.1-0.7-0.1-1.1s0-0.7,0-1S128.6,515.2,128.6,514.8z M129.7,516.9
			c0,0.4,0.1,0.8,0.2,1.2c0.1,0.4,0.3,0.7,0.5,0.9c0.3,0.3,0.6,0.4,1.1,0.4s0.8-0.1,1.1-0.4c0.3-0.3,0.4-0.6,0.5-0.9
			c0.1-0.4,0.2-0.7,0.2-1.2c0-0.4,0.1-0.8,0.1-1.1c0-0.2,0-0.5,0-0.7c0-0.3,0-0.5-0.1-0.8c-0.1-0.3-0.1-0.5-0.2-0.8
			c-0.1-0.3-0.2-0.5-0.3-0.7c-0.2-0.2-0.3-0.4-0.5-0.5c-0.2-0.1-0.5-0.2-0.8-0.2s-0.6,0.1-0.8,0.2c-0.2,0.1-0.4,0.3-0.5,0.5
			c-0.2,0.2-0.3,0.4-0.3,0.7c-0.1,0.3-0.1,0.5-0.2,0.8c-0.1,0.3-0.1,0.5-0.1,0.8c0,0.3,0,0.5,0,0.7
			C129.7,516.2,129.7,516.5,129.7,516.9z"/>
		<path class="st0" d="M136.3,512.9c0.1-0.3,0.2-0.6,0.3-0.8c0.2-0.2,0.4-0.4,0.6-0.6c0.3-0.2,0.6-0.2,0.9-0.2c0.4,0,0.7,0.1,1,0.2
			c0.3,0.2,0.5,0.3,0.6,0.5c0.2,0.2,0.3,0.5,0.3,0.8c0.1,0.3,0.1,0.6,0.1,1c0,0.3-0.1,0.6-0.1,0.9c-0.1,0.3-0.2,0.6-0.4,0.8
			c-0.2,0.2-0.4,0.4-0.6,0.6s-0.6,0.2-0.9,0.2c-0.4,0-0.7-0.1-0.9-0.2c-0.3-0.1-0.5-0.3-0.6-0.5c-0.2-0.2-0.3-0.5-0.4-0.8
			c-0.1-0.3-0.1-0.6-0.1-0.9C136.2,513.5,136.3,513.2,136.3,512.9z M137.2,514.4c0,0.2,0.1,0.4,0.2,0.6c0.1,0.2,0.2,0.3,0.3,0.5
			c0.2,0.1,0.3,0.2,0.6,0.2s0.4-0.1,0.6-0.2c0.2-0.1,0.3-0.3,0.3-0.5c0.1-0.2,0.2-0.4,0.2-0.6c0-0.2,0.1-0.4,0.1-0.6
			c0-0.2,0-0.4-0.1-0.6c0-0.2-0.1-0.4-0.2-0.6c-0.1-0.2-0.2-0.3-0.3-0.5c-0.2-0.1-0.3-0.2-0.6-0.2c-0.2,0-0.4,0.1-0.6,0.2
			s-0.3,0.3-0.3,0.5c-0.1,0.2-0.2,0.4-0.2,0.6c0,0.2-0.1,0.4-0.1,0.6C137.2,514,137.2,514.2,137.2,514.4z M145.3,511.1l-6.8,9.4
			h-1.1l6.8-9.4C144.2,511.1,145.3,511.1,145.3,511.1z M142.6,516.9c0.1-0.3,0.2-0.6,0.3-0.8c0.2-0.2,0.4-0.4,0.6-0.6
			c0.3-0.2,0.6-0.2,0.9-0.2c0.4,0,0.7,0.1,1,0.2c0.3,0.2,0.5,0.3,0.6,0.5c0.2,0.2,0.3,0.5,0.3,0.8c0.1,0.3,0.1,0.6,0.1,1
			c0,0.3-0.1,0.6-0.1,0.9c-0.1,0.3-0.2,0.6-0.4,0.8c-0.2,0.2-0.4,0.4-0.6,0.6s-0.6,0.2-0.9,0.2c-0.4,0-0.7-0.1-0.9-0.2
			c-0.3-0.1-0.5-0.3-0.6-0.5c-0.2-0.2-0.3-0.5-0.4-0.8c-0.1-0.3-0.1-0.6-0.1-0.9S142.5,517.2,142.6,516.9z M143.5,518.5
			c0,0.2,0.1,0.4,0.2,0.6c0.1,0.2,0.2,0.3,0.3,0.5c0.2,0.1,0.3,0.2,0.6,0.2s0.4-0.1,0.6-0.2c0.2-0.1,0.3-0.3,0.3-0.5
			c0.1-0.2,0.2-0.4,0.2-0.6s0.1-0.4,0.1-0.6s0-0.4-0.1-0.6c0-0.2-0.1-0.4-0.2-0.6c-0.1-0.2-0.2-0.3-0.3-0.5
			c-0.2-0.2-0.3-0.2-0.6-0.2c-0.2,0-0.4,0.1-0.6,0.2c-0.2,0.1-0.3,0.3-0.3,0.5c-0.1,0.2-0.2,0.4-0.2,0.6c0,0.2-0.1,0.4-0.1,0.6
			C143.4,518.1,143.4,518.3,143.5,518.5z"/>
	</g>
	<g>
		<path class="st0" d="M-22.8,520.4c-0.4,0-0.8-0.1-1.3-0.2c-0.4-0.1-0.7-0.3-1-0.5c-0.3-0.3-0.5-0.5-0.6-0.9
			c-0.2-0.4-0.2-0.7-0.2-1.2c0-0.6,0.2-1,0.4-1.4c0.3-0.4,0.7-0.6,1.2-0.7l0,0c-0.4-0.2-0.7-0.4-0.9-0.7c-0.2-0.3-0.3-0.7-0.3-1.1
			c0-0.7,0.3-1.4,0.7-1.8c0.5-0.4,1.2-0.6,2.1-0.6s1.6,0.2,2.1,0.6c0.5,0.4,0.7,1,0.7,1.8c0,0.4-0.1,0.8-0.3,1.1s-0.5,0.5-0.9,0.7
			l0,0c0.5,0.1,0.9,0.4,1.2,0.7c0.3,0.4,0.4,0.8,0.4,1.4c0,0.4-0.1,0.8-0.2,1.2c-0.2,0.4-0.4,0.6-0.6,0.9c-0.3,0.3-0.6,0.4-1,0.5
			C-21.9,520.4-22.4,520.4-22.8,520.4z M-22.8,519.3c0.5,0,0.9-0.2,1.2-0.4c0.3-0.3,0.5-0.7,0.5-1.2c0-0.5-0.2-0.9-0.5-1.2
			c-0.3-0.3-0.7-0.4-1.2-0.4s-0.9,0.2-1.2,0.4c-0.3,0.3-0.5,0.6-0.5,1.2s0.2,0.9,0.5,1.2C-23.7,519.2-23.3,519.3-22.8,519.3z
			 M-22.8,512.4c-0.4,0-0.7,0.1-1,0.4c-0.3,0.3-0.4,0.6-0.4,1c0,0.4,0.1,0.7,0.4,0.9c0.3,0.2,0.6,0.3,1,0.3c0.4,0,0.7-0.1,1-0.3
			c0.3-0.2,0.4-0.5,0.4-0.9c0-0.4-0.2-0.8-0.4-1C-22.2,512.5-22.4,512.4-22.8,512.4z"/>
		<path class="st0" d="M-18.3,513.8h1.7v1.7h-1.7V513.8z M-18.3,518.5h1.7v1.7h-1.7V518.5z"/>
		<path class="st0" d="M-12.1,511.2c0.6,0,1.2,0.2,1.5,0.4c0.4,0.3,0.7,0.7,0.9,1.1c0.2,0.4,0.4,0.9,0.5,1.5
			c0.1,0.5,0.1,1.1,0.1,1.6s-0.1,1.1-0.1,1.6c-0.1,0.5-0.2,1.1-0.5,1.5c-0.3,0.4-0.5,0.8-0.9,1.1c-0.4,0.3-0.9,0.4-1.5,0.4
			c-0.6,0-1.2-0.2-1.5-0.4c-0.4-0.3-0.7-0.7-0.9-1.1c-0.2-0.4-0.4-0.9-0.5-1.5s-0.1-1.1-0.1-1.6s0.1-1.1,0.1-1.6
			c0.1-0.5,0.2-1.1,0.5-1.5c0.3-0.4,0.5-0.8,0.9-1.1C-13.3,511.4-12.7,511.2-12.1,511.2z M-12.1,519.2c0.3,0,0.6-0.1,0.8-0.3
			c0.2-0.2,0.4-0.4,0.5-0.7c0.1-0.3,0.2-0.7,0.3-1.1c0.1-0.4,0.1-0.8,0.1-1.3s0-0.9-0.1-1.3c-0.1-0.4-0.2-0.8-0.3-1.1
			s-0.3-0.6-0.5-0.7c-0.2-0.2-0.5-0.3-0.8-0.3c-0.3,0-0.6,0.1-0.8,0.3s-0.4,0.4-0.5,0.7c-0.1,0.3-0.2,0.7-0.3,1.1
			c-0.1,0.4-0.1,0.8-0.1,1.3s0,0.9,0.1,1.3c0.1,0.4,0.2,0.8,0.3,1.1c0.1,0.3,0.3,0.5,0.5,0.7C-12.7,519.2-12.4,519.2-12.1,519.2z"/>
		<path class="st0" d="M-5,520.4c-0.4,0-0.8-0.1-1.3-0.2c-0.4-0.1-0.7-0.3-1-0.5c-0.3-0.3-0.5-0.5-0.6-0.9c-0.2-0.4-0.2-0.7-0.2-1.2
			c0-0.6,0.2-1,0.4-1.4c0.3-0.4,0.7-0.6,1.2-0.7l0,0c-0.4-0.2-0.7-0.4-0.9-0.7s-0.3-0.7-0.3-1.1c0-0.7,0.3-1.4,0.7-1.8
			c0.5-0.4,1.2-0.6,2.1-0.6s1.6,0.2,2.1,0.6s0.7,1,0.7,1.8c0,0.4-0.1,0.8-0.3,1.1c-0.2,0.3-0.5,0.5-0.9,0.7l0,0
			c0.5,0.1,0.9,0.4,1.2,0.7c0.3,0.4,0.4,0.8,0.4,1.4c0,0.4-0.1,0.8-0.2,1.2c-0.2,0.4-0.4,0.6-0.6,0.9c-0.3,0.3-0.6,0.4-1,0.5
			C-4.2,520.4-4.6,520.4-5,520.4z M-5,519.3c0.5,0,0.9-0.2,1.2-0.4c0.3-0.3,0.5-0.7,0.5-1.2c0-0.5-0.2-0.9-0.5-1.2
			c-0.3-0.3-0.7-0.4-1.2-0.4s-0.9,0.2-1.2,0.4c-0.3,0.3-0.5,0.6-0.5,1.2s0.2,0.9,0.5,1.2C-5.9,519.2-5.5,519.3-5,519.3z M-5,512.4
			c-0.4,0-0.7,0.1-1,0.4c-0.3,0.3-0.4,0.5-0.4,1c0,0.4,0.1,0.7,0.4,0.9s0.6,0.3,1,0.3s0.7-0.1,1-0.3s0.4-0.5,0.4-0.9
			c0-0.4-0.2-0.8-0.4-1C-4.4,512.5-4.6,512.4-5,512.4z"/>
		<path class="st0" d="M5.5,511.2h1.7l3.5,9H9l-0.8-2.4H4.6l-0.8,2.4H2.1L5.5,511.2z M5,516.7h2.7l-1.4-3.9H6.3L5,516.7z"/>
		<path class="st0" d="M11.6,511.2h2.2l2.5,7.1l0,0l2.4-7.1h2.2v9h-1.5v-6.9l0,0l-2.5,6.9h-1.3l-2.5-6.9l0,0v6.9h-1.5v-9H11.6z"/>
	</g>
</g>
</svg>
